<svg id="Layer_1" data-name="Layer 1" xmlns="http://www.w3.org/2000/svg" viewBox="0 0 48 48"><path d="M41.5,33.7l1.92,1.9a1.88,1.88,0,0,1,0,2.92c-1.64,1.63-3.27,3.27-4.9,4.9a1.88,1.88,0,0,1-2.9,0c-.58-.57-1.16-1.13-1.73-1.71a.29.29,0,0,0-.43-.07,19.62,19.62,0,0,1-3.67,1.53.28.28,0,0,0-.25.33c0,.82,0,1.64,0,2.46a1.87,1.87,0,0,1-2,2h-7a1.86,1.86,0,0,1-2-2c0-.82,0-1.64,0-2.46,0-.22-.07-.31-.28-.37a19.06,19.06,0,0,1-3.62-1.5.3.3,0,0,0-.45.06c-.58.6-1.17,1.18-1.76,1.76a1.86,1.86,0,0,1-2.8,0c-1.7-1.69-3.39-3.37-5.08-5.07a1.85,1.85,0,0,1,0-2.73c.66-.66,1.33-1.3,2-1.94-.29-.62-.59-1.17-.83-1.75-.3-.73-.56-1.47-.82-2.22a.29.29,0,0,0-.34-.24c-.82,0-1.64,0-2.46,0a1.85,1.85,0,0,1-2-2V20.46a1.85,1.85,0,0,1,2-2c.84,0,1.68,0,2.52,0a.27.27,0,0,0,.31-.23,17.9,17.9,0,0,1,1.53-3.67.32.32,0,0,0-.08-.46c-.6-.58-1.18-1.16-1.77-1.75a1.87,1.87,0,0,1,0-2.8C6.18,7.87,7.86,6.18,9.55,4.5a1.87,1.87,0,0,1,2.79,0c.6.6,1.2,1.19,1.78,1.79a.29.29,0,0,0,.41.06,18.25,18.25,0,0,1,3.68-1.54c.2,0,.25-.14.25-.35q0-1.26,0-2.52A1.83,1.83,0,0,1,20.37,0h7.24a1.84,1.84,0,0,1,1.93,1.93q0,1.26,0,2.52c0,.21.06.29.26.35a17.93,17.93,0,0,1,3.67,1.54.3.3,0,0,0,.43-.07c.58-.6,1.17-1.18,1.76-1.77a1.86,1.86,0,0,1,2.79,0l5,5a1.87,1.87,0,0,1,0,2.86c-.57.57-1.14,1.15-1.72,1.71a.31.31,0,0,0-.07.44,18.7,18.7,0,0,1,1.5,3.68c.05.19.13.26.33.25q1.29,0,2.58,0A1.84,1.84,0,0,1,48,20.39v7.2a1.84,1.84,0,0,1-1.94,1.95H43.51c-.1,0-.27.07-.3.15A20.58,20.58,0,0,1,41.5,33.7ZM8.38,11c.52.53,1,1,1.54,1.57a1.83,1.83,0,0,1,.25,2.37,16.83,16.83,0,0,0-2.42,5.8,1.82,1.82,0,0,1-1.67,1.45,7.3,7.3,0,0,1-.81,0H3.71v3.68H5.78a1.87,1.87,0,0,1,2,1.58A16.48,16.48,0,0,0,10.08,33a1.88,1.88,0,0,1-.28,2.62L8.37,37,11,39.64l1.46-1.48A1.86,1.86,0,0,1,15,37.89a16.84,16.84,0,0,0,5.61,2.36,1.83,1.83,0,0,1,1.55,1.92V44c0,.11,0,.21,0,.31h3.67V42.09a1.84,1.84,0,0,1,1.46-1.82,16.66,16.66,0,0,0,5.77-2.41,1.81,1.81,0,0,1,2.43.27c.51.51,1,1,1.49,1.54L39.64,37c-.52-.51-1.06-1-1.58-1.57a1.79,1.79,0,0,1-.27-2.28,17.43,17.43,0,0,0,2.49-5.91,1.8,1.8,0,0,1,1.79-1.41h2.21V22.16H42.19a1.9,1.9,0,0,1-2-1.65A16,16,0,0,0,38,15a2,2,0,0,1,.33-2.74c.46-.44.9-.9,1.3-1.3L37,8.38,35.56,9.83a1.88,1.88,0,0,1-2.51.26l-.25-.16a15.81,15.81,0,0,0-5.37-2.17,1.88,1.88,0,0,1-1.59-2V4a2.28,2.28,0,0,0,0-.26H22.19a.67.67,0,0,1,0,.07v2a1.88,1.88,0,0,1-1.56,2,16.44,16.44,0,0,0-5.36,2.19c-1.32.82-2,.75-3.06-.37L11,8.35Z" transform="translate(0 0)"/><path d="M24,14.77a9.23,9.23,0,1,1-9.23,9.16A9.26,9.26,0,0,1,24,14.77ZM18.46,24A5.54,5.54,0,1,0,24,18.46,5.51,5.51,0,0,0,18.46,24Z" transform="translate(0 0)"/></svg>