<?xml version="1.0" encoding="utf-8"?>
<!-- Generator: Adobe Illustrator 26.0.3, SVG Export Plug-In . SVG Version: 6.00 Build 0)  -->
<svg version="1.1" id="Layer_1" xmlns="http://www.w3.org/2000/svg" xmlns:xlink="http://www.w3.org/1999/xlink" x="0px" y="0px"
	 viewBox="0 0 48 48" style="enable-background:new 0 0 48 48;" xml:space="preserve">
<style type="text/css">
	.st0{fill:#3564BD;}
</style>
<path class="st0" d="M41.5,33.7l1.9,1.9c0.8,0.7,0.9,1.8,0.3,2.6c-0.1,0.1-0.2,0.2-0.3,0.3c-1.6,1.6-3.3,3.3-4.9,4.9
	c-0.7,0.8-1.8,0.9-2.6,0.3c-0.1-0.1-0.2-0.2-0.3-0.3c-0.6-0.6-1.2-1.1-1.7-1.7c-0.1-0.1-0.3-0.2-0.4-0.1c0,0,0,0,0,0
	c-1.2,0.6-2.4,1.1-3.7,1.5c-0.2,0-0.3,0.2-0.3,0.3c0,0,0,0,0,0c0,0.8,0,1.6,0,2.5c0.1,1-0.7,1.9-1.7,2c-0.1,0-0.2,0-0.3,0h-7
	c-1,0.1-1.9-0.7-2-1.7c0-0.1,0-0.2,0-0.3c0-0.8,0-1.6,0-2.5c0-0.2-0.1-0.3-0.3-0.4c-1.3-0.4-2.5-0.9-3.6-1.5c-0.1-0.1-0.3-0.1-0.4,0
	c0,0,0,0,0,0c-0.6,0.6-1.2,1.2-1.8,1.8c-0.7,0.8-1.9,0.9-2.6,0.2c-0.1-0.1-0.1-0.1-0.2-0.2c-1.7-1.7-3.4-3.4-5.1-5.1
	c-0.8-0.7-0.8-1.9-0.1-2.6c0,0,0.1-0.1,0.1-0.1c0.7-0.7,1.3-1.3,2-1.9C6.3,33.1,6,32.5,5.7,32c-0.3-0.7-0.6-1.5-0.8-2.2
	c0-0.2-0.2-0.3-0.3-0.2c0,0,0,0,0,0c-0.8,0-1.6,0-2.5,0c-1,0.1-1.9-0.7-2-1.7c0-0.1,0-0.2,0-0.3v-7c-0.1-1,0.7-1.9,1.7-2
	c0.1,0,0.2,0,0.3,0c0.8,0,1.7,0,2.5,0c0.1,0,0.3-0.1,0.3-0.2c0,0,0,0,0,0c0.4-1.3,0.9-2.5,1.5-3.7c0.1-0.1,0.1-0.3-0.1-0.4
	c0,0,0,0,0,0c-0.6-0.6-1.2-1.2-1.8-1.8c-0.8-0.7-0.8-1.9-0.2-2.6c0.1-0.1,0.1-0.1,0.2-0.2c1.6-1.7,3.3-3.4,4.9-5
	c0.7-0.8,1.9-0.8,2.6-0.1c0.1,0,0.1,0.1,0.1,0.1c0.6,0.6,1.2,1.2,1.8,1.8c0.1,0.1,0.3,0.2,0.4,0.1c0,0,0,0,0,0
	c1.2-0.6,2.4-1.2,3.7-1.5c0.2,0,0.2-0.1,0.2-0.3c0-0.8,0-1.7,0-2.5c-0.1-1,0.7-1.9,1.7-1.9c0.1,0,0.1,0,0.2,0h7.2
	c1-0.1,1.9,0.7,1.9,1.7c0,0.1,0,0.1,0,0.2c0,0.8,0,1.7,0,2.5c0,0.2,0.1,0.3,0.3,0.3c1.3,0.4,2.5,0.9,3.7,1.5
	c0.1,0.1,0.3,0.1,0.4-0.1c0,0,0,0,0,0c0.6-0.6,1.2-1.2,1.8-1.8c0.7-0.8,1.9-0.8,2.6-0.2c0.1,0.1,0.1,0.1,0.2,0.2l5,5
	c0.8,0.7,0.9,1.8,0.2,2.6c-0.1,0.1-0.1,0.2-0.2,0.2c-0.6,0.6-1.1,1.1-1.7,1.7c-0.1,0.1-0.2,0.3-0.1,0.4c0,0,0,0,0,0
	c0.6,1.2,1.1,2.4,1.5,3.7c0,0.2,0.1,0.3,0.3,0.2c0.9,0,1.7,0,2.6,0c1-0.1,1.9,0.7,1.9,1.7c0,0.1,0,0.1,0,0.2v7.2
	c0.1,1-0.7,1.9-1.7,1.9c-0.1,0-0.1,0-0.2,0h-2.6c-0.1,0-0.3,0.1-0.3,0.1C42.8,31.1,42.2,32.4,41.5,33.7z M8.4,11
	c0.5,0.5,1,1,1.5,1.6c0.7,0.6,0.8,1.6,0.2,2.4c-1.2,1.8-2,3.7-2.4,5.8c-0.2,0.8-0.8,1.4-1.7,1.5c-0.3,0-0.5,0-0.8,0H3.7v3.7h2.1
	c1-0.1,1.9,0.6,2,1.6c0.4,2,1.2,3.9,2.3,5.5c0.6,0.8,0.5,2-0.3,2.6L8.4,37l2.6,2.6l1.5-1.5c0.6-0.7,1.8-0.9,2.5-0.3
	c1.7,1.1,3.6,1.9,5.6,2.4c0.9,0.1,1.6,1,1.5,1.9V44c0,0.1,0,0.2,0,0.3h3.7v-2.2c0-0.9,0.6-1.6,1.5-1.8c2.1-0.4,4-1.2,5.8-2.4
	c0.8-0.6,1.8-0.4,2.4,0.3c0.5,0.5,1,1,1.5,1.5l2.7-2.7c-0.5-0.5-1.1-1-1.6-1.6c-0.6-0.6-0.7-1.6-0.3-2.3c1.2-1.8,2-3.8,2.5-5.9
	c0.2-0.8,0.9-1.4,1.8-1.4h2.2v-3.7h-2.1c-1,0.1-1.9-0.7-2-1.6c-0.4-2-1.1-3.8-2.2-5.5c-0.6-0.9-0.5-2.1,0.3-2.7
	c0.5-0.4,0.9-0.9,1.3-1.3L37,8.4l-1.4,1.4c-0.6,0.7-1.7,0.8-2.5,0.3l-0.2-0.2c-1.6-1-3.5-1.8-5.4-2.2c-1-0.1-1.7-1-1.6-2V4
	c0-0.1,0-0.2,0-0.3h-3.7c0,0,0,0,0,0.1v2c0.1,1-0.6,1.8-1.6,2C18.7,8.2,16.9,9,15.3,10c-1.3,0.8-2,0.8-3.1-0.4L11,8.4L8.4,11z"/>
<path class="st0" d="M24,14.8c5.1,0,9.2,4.1,9.2,9.2c0,5.1-4.1,9.2-9.2,9.2s-9.2-4.1-9.2-9.2c0,0,0,0,0-0.1
	C14.8,18.9,18.9,14.8,24,14.8z M18.5,24c0,3.1,2.5,5.5,5.5,5.5s5.5-2.5,5.5-5.5s-2.5-5.5-5.5-5.5C21,18.4,18.5,20.9,18.5,24
	C18.5,24,18.5,24,18.5,24z"/>
</svg>
